<svg xmlns="http://www.w3.org/2000/svg" viewBox="0 0 32 36" fill="currentColor" aria-hidden="true">
  <!-- Birch leaf — almond shape with a serrated midrib -->
  <path
    d="M16 1 C24 6 30 14 30 22 C30 29 23 35 16 35 C9 35 2 29 2 22 C2 14 8 6 16 1 Z"
    fill="currentColor"
    opacity="0.92"
  />
  <path
    d="M16 1 L16 35"
    stroke="rgba(0,0,0,0.35)"
    stroke-width="0.8"
    fill="none"
  />
  <g stroke="rgba(0,0,0,0.22)" stroke-width="0.5" fill="none">
    <path d="M16 8 Q22 11 26 14" />
    <path d="M16 14 Q23 17 28 20" />
    <path d="M16 20 Q22 23 27 25" />
    <path d="M16 26 Q21 28 24 30" />
    <path d="M16 8 Q10 11 6 14" />
    <path d="M16 14 Q9 17 4 20" />
    <path d="M16 20 Q10 23 5 25" />
    <path d="M16 26 Q11 28 8 30" />
  </g>
</svg>
